<?xml version="1.0" standalone="no"?>
<!DOCTYPE svg PUBLIC "-//W3C//DTD SVG 20010904//EN"
 "http://www.w3.org/TR/2001/REC-SVG-20010904/DTD/svg10.dtd">
<svg version="1.0" xmlns="http://www.w3.org/2000/svg"
 width="1200.000000pt" height="539.000000pt" viewBox="0 0 1200.000000 539.000000"
 preserveAspectRatio="xMidYMid meet">

<g transform="translate(0.000000,539.000000) scale(0.100000,-0.100000)"
fill="#000000" stroke="none">
<path d="M0 2695 l0 -2695 6000 0 6000 0 0 2695 0 2695 -6000 0 -6000 0 0
-2695z m8354 2510 c112 -24 185 -64 279 -154 94 -91 138 -161 162 -262 61
-260 -59 -527 -288 -639 -289 -141 -582 -89 -769 137 -62 74 -106 166 -125
261 -61 294 165 615 467 665 59 10 210 6 274 -8z m2071 0 c106 -22 203 -75
283 -153 84 -81 114 -128 147 -226 30 -89 34 -227 10 -320 -40 -153 -151 -292
-285 -358 -255 -125 -524 -95 -709 77 -198 185 -249 435 -136 671 69 144 226
271 381 308 78 19 222 19 309 1z m-6472 -254 c106 -37 174 -81 251 -161 143
-150 147 -163 531 -1625 103 -390 242 -921 310 -1178 68 -258 126 -471 129
-474 3 -4 8 -4 10 -2 14 14 506 1910 867 3342 l22 87 528 0 c290 0 534 -2 542
-6 12 -4 11 -18 -9 -87 -13 -45 -170 -608 -349 -1252 -516 -1852 -772 -2741
-840 -2915 -84 -213 -282 -410 -485 -482 -58 -20 -84 -23 -235 -23 -140 0
-180 3 -225 19 -110 37 -172 78 -276 181 -192 189 -187 176 -749 2233 -131
479 -242 872 -245 872 -10 0 -86 -260 -250 -855 -535 -1938 -532 -1928 -626
-2090 -60 -102 -194 -238 -284 -288 -113 -62 -163 -72 -355 -71 -150 0 -177 3
-230 22 -181 68 -360 233 -453 417 -68 136 -207 616 -887 3060 -103 369 -222
797 -266 953 -43 156 -79 290 -79 298 0 12 78 14 534 14 l534 0 11 -32 c19
-59 176 -672 527 -2048 190 -745 348 -1362 350 -1370 5 -13 6 -13 13 0 5 8 57
200 116 425 602 2308 686 2608 760 2741 92 165 264 289 435 315 97 14 307 3
373 -20z m4777 -3101 l0 -1650 -510 0 -510 0 0 1650 0 1650 510 0 510 0 0
-1650z m2070 0 l0 -1650 -510 0 -510 0 0 1650 0 1650 510 0 510 0 0 -1650z
m578 -1292 c-3 -20 -10 -23 -60 -26 l-58 -3 0 -164 0 -165 -30 0 -30 0 0 165
0 165 -60 0 c-57 0 -60 1 -60 25 l0 25 151 0 c150 0 150 0 147 -22z m178 -108
c21 -72 41 -130 45 -130 4 0 27 58 51 130 l42 130 48 0 48 0 0 -190 0 -190
-30 0 -30 0 0 121 c0 88 -3 120 -12 117 -6 -2 -28 -53 -47 -114 -35 -105 -37
-109 -67 -112 -36 -4 -38 0 -79 140 -15 54 -32 95 -37 92 -4 -3 -8 -59 -8
-125 l0 -119 -30 0 -30 0 0 190 0 190 49 0 48 0 39 -130z"/>
</g>
</svg>
